Coordinates
version=1
nRows=17
nColumns=24
inDegrees=yes

Units are S.I. units (second, meters, Newtons, ...)
Angles are in degrees.

endheader
time	pelvis_tilt	pelvis_list	pelvis_rotation	pelvis_tx	pelvis_ty	pelvis_tz	hip_flexion_r	hip_adduction_r	hip_rotation_r	knee_angle_r	ankle_angle_r	subtalar_angle_r	mtp_angle_r	hip_flexion_l	hip_adduction_l	hip_rotation_l	knee_angle_l	ankle_angle_l	subtalar_angle_l	mtp_angle_l	lumbar_extension	lumbar_bending	lumbar_rotation
      0.52500000	     -5.45695626	      1.62465353	      6.80360498	     -0.78324460	      1.02017234	      0.31443440	     25.14964580	     -0.03710326	     -9.34305007	      4.20793611	      3.67433391	      2.15547014	      3.62203117	     -7.04176436	      6.69055525	      9.47286234	    -11.02105978	      8.48271882	     -6.49430342	     -2.56273835	     -1.97082721	     -5.20496315	     -5.67665099
      0.52916667	     -5.41438600	      1.57071550	      6.83972833	     -0.77723782	      1.01964816	      0.31453760	     25.07108611	      0.12972730	     -9.23522713	      3.96019610	      3.80681164	      1.94902573	      3.66870284	     -7.08201695	      6.59189487	      9.25781790	    -11.74039290	      8.70924904	     -6.00915947	     -2.54228222	     -1.93916776	     -5.15643565	     -5.64449985
      0.53333333	     -5.37976555	      1.51116658	      6.88103397	     -0.77119379	      1.01913209	      0.31461051	     24.99425419	      0.29398252	     -9.04994672	      3.66486520	      3.89338352	      1.61223555	      3.73023969	     -7.11961191	      6.49935482	      9.16595074	    -12.44821052	      8.82627447	     -5.75663463	     -2.49406335	     -1.89023886	     -5.08551577	     -5.65608017
      0.53750000	     -5.32899164	      1.44262614	      6.91325781	     -0.76513161	      1.01864262	      0.31467910	     24.90884064	      0.46834850	     -8.84046186	      3.30951039	      3.86781207	      1.15033819	      3.82213639	     -7.14300630	      6.39363216	      8.99325951	    -13.21295885	      8.93146115	     -5.41727808	     -2.40369716	     -1.86163154	     -4.99644052	     -5.65606315
      0.54166667	     -5.21135623	      1.35732965	      6.93594494	     -0.75902607	      1.01827951	      0.31475138	     24.75541124	      0.66619656	     -8.66203683	      2.91871726	      3.68365387	      0.66609520	      4.72170175	     -7.22030824	      6.25709405	      8.75994146	    -14.00512338	      9.03638162	     -5.03507490	     -1.46148431	     -1.91552715	     -4.88231090	     -5.57678839
      0.54583333	     -5.20019687	      1.29275654	      6.97523395	     -0.75291961	      1.01776335	      0.31479585	     24.72331578	      0.82021242	     -8.39137168	      2.46268584	      3.53287704	      0.03067311	      4.81312930	     -7.16640074	      6.16450590	      8.61328906	    -14.83424635	      9.01479214	     -4.76482933	     -1.34233815	     -1.82819112	     -4.82731795	     -5.66889339
      0.55000000	     -5.11739584	      1.19403046	      7.00043849	     -0.74674041	      1.01736336	      0.31483919	     24.59918502	      1.02049105	     -8.09327597	      2.01399485	      3.32094276	     -0.62427992	      4.91970743	     -7.16792138	      6.02245932	      8.39518316	    -15.69621898	      9.00075897	     -4.44495342	     -1.19337668	     -1.81680709	     -4.66937608	     -5.66204319
      0.55416667	     -5.02790683	      1.11603467	      7.03165997	     -0.74057986	      1.01699543	      0.31488985	     24.47573662	      1.19653941	     -7.80339190	      1.53883289	      2.93498172	     -1.39666390	      5.09527495	     -7.14917814	      5.89645394	      8.15140446	    -16.60831380	      8.99444306	     -4.06887928	     -0.93299655	     -1.82695701	     -4.59347619	     -5.65928073
      0.55833333	     -4.96326974	      0.99881064	      7.05619247	     -0.73433316	      1.01659975	      0.31491860	     24.36971830	      1.40821317	     -7.49428383	      1.06376887	      2.52500857	     -2.13406704	      5.25676421	     -7.08764360	      5.73138180	      7.88681422	    -17.54293943	      8.86292582	     -3.74314644	     -0.68122880	     -1.78005881	     -4.40876369	     -5.66167007
      0.56250000	     -4.85889616	      0.89110215	      7.07775586	     -0.72809167	      1.01627981	      0.31497672	     24.22294653	      1.61654082	     -7.17609627	      0.58062159	      2.01393035	     -2.96622757	      5.44117463	     -7.03786727	      5.56274541	      7.57281196	    -18.52600061	      8.73550474	     -3.36251816	     -0.37102864	     -1.78701854	     -4.26249395	     -5.65686004
      0.56666667	     -4.75418909	      0.80370946	      7.09641305	     -0.72184334	      1.01598163	      0.31503958	     24.08170602	      1.80259382	     -6.85925419	      0.08137071	      1.38633140	     -3.87736024	      7.98761619	     -6.98100122	      5.41673535	      7.28745022	    -19.50898633	      8.43572854	     -3.13740131	      3.98375956	     -1.79525313	     -4.15557812	     -5.61305313
      0.57083333	     -4.67014129	      0.68951254	      7.12404453	     -0.71557197	      1.01566283	      0.31510160	     23.96450367	      2.00716399	     -6.57657521	     -0.42732842	      0.76675107	     -4.69789391	      7.99825005	     -6.85345447	      5.22794229	      6.91724384	    -20.58729864	      8.25413757	     -2.67598078	      4.08548581	     -1.77220449	     -4.00373068	     -5.64384841
      0.57500000	     -4.55837209	      0.57750829	      7.14449436	     -0.70928120	      1.01542708	      0.31518145	     23.80643989	      2.21617439	     -6.25805955	     -0.91560628	      0.06605608	     -5.58700825	      8.04107955	     -6.73737378	      5.03142377	      6.52605470	    -21.67790461	      7.96287441	     -2.26812555	      4.27376901	     -1.78239006	     -3.84563574	     -5.62785832
      0.57916667	     -4.45428256	      0.46289134	      7.16522587	     -0.70298554	      1.01519591	      0.31527477	     23.65824755	      2.42493617	     -5.94602885	     -1.40698945	     -0.66878621	     -6.47774736	      8.11629279	     -6.58814411	      4.82349351	      6.11822782	    -22.80584275	      7.61628148	     -1.85015229	      4.56664544	     -1.77950515	     -3.69270686	     -5.61183727
      0.58333333	     -4.34864159	      0.33800334	      7.18409741	     -0.69667931	      1.01499930	      0.31537918	     23.51163541	      2.64151985	     -5.66343435	     -1.90379522	     -1.43373022	     -7.32602066	      8.21047727	     -6.41076606	      4.59026816	      5.66286478	    -23.97142296	      7.18149385	     -1.41724774	      4.94168459	     -1.77530743	     -3.51715094	     -5.59091176
      0.58750000	     -4.25959341	      0.23299671	      7.19804924	     -0.69038454	      1.01480143	      0.31550789	     23.38685942	      2.83502009	     -5.37439490	     -2.41067076	     -2.23317705	     -8.16536090	      9.51363210	     -6.20448690	      4.37618047	      5.23158730	    -25.12714410	      6.49457988	     -1.16500944	      9.83578856	     -1.75634147	     -3.38983692	     -5.55300953
      0.59166667	     -4.11790931	      0.08480755	      7.22435030	     -0.68408175	      1.01473385	      0.31563196	     23.21752217	      3.06695642	     -5.20700249	     -2.94375942	     -2.92046661	     -8.80688421	      9.50734976	     -6.00348253	      4.07587000	      4.69442946	    -26.37113693	      5.98804001	     -0.60437315	      9.95362560	     -1.79823638	     -3.17409669	     -5.54154152
